<?xml version="1.0" encoding="UTF-8"?>
<svg id="Layer_2" data-name="Layer 2" xmlns="http://www.w3.org/2000/svg" viewBox="0 0 704.02 704.51">
  <defs>
    <style>
      .cls-1 {
        fill: #fff;
      }
    </style>
  </defs>
  <path class="cls-1" d="M704,352.26c1.56,139.42-87.97,273.21-217.28,325.24C255.73,773.3-.23,602.37,0,352.25-.22,102.14,255.74-68.79,486.72,27.01c129.3,52.04,218.86,185.81,217.28,325.24h0Zm-5,0c1.54-137.45-86.72-269.33-214.2-320.62C257.1-62.8,4.77,105.69,5,352.26c-.22,246.56,252.1,415.06,479.8,320.62,127.47-51.3,215.75-183.16,214.2-320.62h0Z"/>
  <path class="cls-1" d="M690,352.76c1.5,134.08-84.59,262.74-208.95,312.77C258.92,757.65,12.78,593.27,13,352.75,12.78,112.23,258.93-52.15,481.05,39.99c124.35,50.04,210.46,178.69,208.95,312.77h0Zm-7,0c1.47-131.31-82.84-257.3-204.63-306.3C260.84-43.76,19.78,117.21,20,352.76c-.21,235.55,240.84,396.52,458.37,306.3,121.77-49.01,206.11-174.98,204.63-306.3h0Z"/>
  <path class="cls-1" d="M528.12,393.6c-34.53,145.84-217.35,191.62-316.47,79.28-20.37-23.36-34.59-51.97-41-82.28,0,0,9.79-2.06,9.79-2.06,8.04,38.24,29.41,73.49,59.79,98.1,61.56,51.22,154.31,52.01,216.72,1.84,30.7-24.18,52.74-59.01,61.44-97.11,0,0,9.75,2.23,9.75,2.23h0Z"/>
  <path class="cls-1" d="M171.62,321.03c11.09-65.45,60.52-122.21,123.87-142.12,86.14-28.64,183.77,13.59,221.86,95.99,9.43,19.89,15.12,41.51,16.9,63.43,0,0-9.97,.8-9.97,.8-3.21-41.55-22.07-81.54-52.14-110.39-79.41-77.55-212.68-59.71-269,35.89-10.67,17.86-18.04,37.67-21.67,58.14,0,0-9.85-1.74-9.85-1.74h0Z"/>
  <path class="cls-1" d="M511.19,378.99c-1.32,.11-1.19-1.04-1.53-1.73-6.87-13.99-18.3-20.89-33.66-20.73-10.32,.11-19.46,3.71-25.94,12.33-.83,1.1-1.78,1.14-2.95,1.03-9.96-.96-19.93-1.91-29.89-2.85-14.17-1.35-28.34-2.68-42.51-4.04-16.83-1.61-33.65-3.27-50.49-4.83-15.97-1.48-31.96-2.84-47.93-4.31-10.99-1.01-21.96-2.37-32.97-3.14-14.45-1.02-28.81-3.46-43.31-3.47-13.66,0-27.14,2.36-40.65,4.19-6.81,.92-13.52,2.56-20.75,2.83,.79-1.14,1.78-1.27,2.73-1.45,18.73-3.56,37.4-7.4,56.07-11.3,20.08-4.2,40.17-8.41,60.33-12.24,12.28-2.33,24.66-4.14,37.04-5.89,15.39-2.17,30.83-3.87,46.35-4.53,21.22-.89,42.14,.96,62.16,8.56,14.86,5.64,29.35,12.13,43.25,19.89,.45,.25,.95,.45,1,1.27-1.13,1.41-2.51,1.21-4.01,.42-5.96-3.14-12-6.14-18.21-8.75-16.02-6.74-32.33-12.75-49.6-15.24-12.32-1.78-24.78-1.25-37.21-.36-16.72,1.2-33.31,3.17-49.77,6.37-8.72,1.7-17.47,3.22-26.13,5.25-4.61,1.08-5.33,2.87-2.51,6.6,2.56,3.39,5.71,5.21,10.25,5.41,13.53,.58,27.03,1.67,40.55,2.51,10.08,.63,20.16,1.12,30.23,1.77,14.38,.93,28.74,2.02,43.12,2.92,12.31,.77,24.63,1.36,36.94,2.04,4.74,.26,9.47,.53,14.2,.88,1.77,.13,3.42-.03,5.05-.76,3.16-1.4,6.45-2.52,9.5-4.11,8.07-4.2,16.54-3.72,25.06-2.36,29.01,4.65,56.23,14.52,82.08,28.34,.78,.42,1.81,.66,2.09,1.87-1.12,.56-2.01-.12-2.89-.48-11.99-4.9-24.12-9.41-36.65-12.78-1.99-.54-4.06-.84-6.11-1.05-2.65-.27-3.32,.42-3.04,3.04,.31,2.91,1.1,5.77,.69,8.88Z"/>
  <path class="cls-1" d="M192.2,360.68c5.23,1.66,9.73,4.06,12.91,8.63-15.16-8.19-29.97-9.51-44.58,2.14,2.53-8.43,18.21-14.7,31.67-10.78Z"/>
  <path class="cls-1" d="M387.88,341.9c3.02-.95,5.96-1.16,8.85-1.61,1.79-.28,3.6-.14,5.38,.38,5.49,1.59,5.97,2.71,3.06,7.42-.96,1.56-1.92,3.12-3.06,4.97-.81-1.53-.33-2.65-.38-3.71-.14-3.38-.71-3.96-4.01-3.67-4.66,.4-9.29-.09-13.93-.37-.81-.05-1.74,0-2.72-1.02,1.99-1.59,4.45-1.59,6.81-2.39Z"/>
  <g>
    <path class="cls-1" d="M120.97,300.15c3.27,6.01,4.15,13.73,3.35,23.8-.85,9.77-.97,19.93-.36,29.72-1.62,.03-2.43,.04-4.04,.07-.22-3.96-.29-5.93-.33-9.85-17.8-.45-35.61-.89-53.41-1.34,.08,4.84,.18,7.27,.48,12.14-1.62,.03-2.43,.04-4.04,.07-.81-13.17-.7-26.4,.35-39.56,.19-8.32,3.69-19.63,9.98-25.57,5.42-5.13,12.18-6.47,20.04-4.5,4.34,1.09,6.52,1.64,10.86,2.73,8.26,2.07,13.86,6.28,17.13,12.29Zm-29.83-7.68c-6.37-1.41-11.84-.2-16.26,3.98-4.42,4.18-7.24,10.96-7.95,20.17-.55,7.21-.71,10.85-.79,18.17,17.82,.93,35.63,1.87,53.45,2.8,.09-5.51,.22-8.24,.64-13.67,.62-7.98-.37-14.23-3.37-19.19-3-4.95-7.75-8.29-14.46-9.78-4.5-.99-6.76-1.49-11.26-2.49Z"/>
    <path class="cls-1" d="M131.54,283.06c-1.58-.48-2.37-.72-3.94-1.2,1-3.62,1.54-5.41,2.69-8.97-17.13-5.98-34.25-11.95-51.38-17.93-1.39,4.39-2.05,6.61-3.26,11.08-1.58-.48-2.37-.72-3.94-1.2,6.14-20.88,13.94-40.35,23.91-59.71,6.2,3.51,9.3,5.27,15.5,8.78-1.2,2.2-1.78,3.31-2.93,5.54-4.8-2.58-7.21-3.87-12.01-6.45-5.75,11.24-10.73,22.88-14.88,34.8,9.12,3.45,13.68,5.18,22.8,8.63,2.92-8.24,4.56-12.29,8.17-20.19-2.71-1.29-4.07-1.94-6.78-3.23,.88-1.96,1.33-2.94,2.26-4.87,6.99,3.5,10.49,5.25,17.48,8.75-.86,1.8-1.28,2.7-2.1,4.52-2.84-1.35-4.26-2.03-7.1-3.38-3.52,7.79-5.12,11.78-7.97,19.9,9.68,3.67,14.52,5.5,24.2,9.16,3.34-9.66,7.56-19.39,12.34-28.43-5.05-2.72-7.58-4.08-12.63-6.81,1.06-2.05,1.6-3.07,2.71-5.09,6.44,3.67,9.66,5.5,16.1,9.16-8.38,14.92-14.25,30.81-19.23,47.13Z"/>
    <path class="cls-1" d="M146.17,166.73c-4.5-4.02-6.75-6.03-11.25-10.05-5.94,6.76-8.78,10.26-14.16,17.48,14.51,11.07,29.03,22.15,43.54,33.22,2.7-3.59,4.09-5.35,6.97-8.79,1.28,1.08,1.92,1.62,3.21,2.7-7.16,8.58-10.48,13.11-16.51,22.55-1.4-.91-2.1-1.37-3.5-2.28,2.42-3.79,3.68-5.66,6.28-9.32-14.78-10.69-29.56-21.38-44.34-32.07-5.21,7.41-7.67,11.22-12.27,19.05,5.12,3.12,7.68,4.69,12.8,7.81-1.26,2.14-1.88,3.22-3.09,5.4-6.75-3.91-10.12-5.87-16.87-9.78,11.37-19.46,24.08-37.03,39-53.94,5.74,5.37,8.61,8.05,14.36,13.42-1.68,1.82-2.51,2.74-4.15,4.6Z"/>
    <path class="cls-1" d="M223.95,157.5c-.93-1.41-1.4-2.11-2.33-3.52,3.17-2.05,4.78-3.04,8.05-4.96-6.29-4.97-9.52-7.38-16.13-12.03-8.51,5.31-16.88,11.39-24.57,17.83,2.42,7.67,3.74,11.45,6.56,18.88,2.82-2.48,4.26-3.69,7.19-6.05,1.06,1.31,1.6,1.96,2.66,3.26-6.82,5.49-10.09,8.41-16.31,14.53-1.18-1.2-1.77-1.8-2.95-2.99,1.83-1.8,2.76-2.69,4.64-4.44-7.72-20.5-13.71-41.03-18.32-62.46,3.43-2.61,5.17-3.88,8.7-6.35,19.07,10.96,36.9,22.98,54.17,36.61,2.31-1.27,3.48-1.89,5.84-3.09,.8,1.49,1.19,2.24,1.99,3.73-7.92,4.04-11.76,6.26-19.18,11.05Zm-44.96-41.9c2.29,11.77,5.15,23.43,8.58,34.92,8.51-6.94,12.97-10.19,22.25-16.16-9.96-6.75-20.26-13.01-30.83-18.76Z"/>
    <path class="cls-1" d="M250.9,142.68c-.74-1.52-1.11-2.28-1.85-3.8,3.39-1.56,5.1-2.31,8.57-3.74-7.45-16.98-14.9-33.97-22.35-50.95-4.27,1.78-6.39,2.72-10.56,4.67-.74-1.52-1.11-2.28-1.85-3.8,9.29-4.42,19.08-8.34,28.85-11.58,.58,1.59,.86,2.38,1.44,3.97-4.42,1.49-6.61,2.28-10.94,3.95,7.01,17.17,14.03,34.34,21.04,51.51,3.51-1.33,5.29-1.96,8.87-3.15,.58,1.59,.86,2.38,1.44,3.97-9.31,3.08-13.85,4.88-22.66,8.94Z"/>
    <path class="cls-1" d="M281.35,131.32c-.52-1.61-.78-2.41-1.3-4.02,3.64-1.06,5.48-1.55,9.19-2.46-4.99-17.86-9.98-35.72-14.97-53.58-4.58,1.14-6.85,1.76-11.35,3.09-.52-1.61-.78-2.41-1.3-4.02,11.12-3.04,21.94-5.53,33.27-7.67,.33,1.66,.5,2.48,.83,4.14-5.61,.93-8.39,1.47-13.9,2.68,4.51,17.98,9.02,35.96,13.53,53.95,9.38-2.08,19.21-3.52,28.79-4.23-.73-5.99-1.1-8.98-1.84-14.96,2.46-.2,3.69-.29,6.17-.43,.75,7.68,1.13,11.52,1.88,19.2-16.57,.78-33.07,3.8-49.01,8.31Z"/>
  </g>
  <g>
    <path class="cls-1" d="M445.77,88.67c1.97-5.07,2.96-7.6,4.94-12.67-11.57-4.03-23.42-7.26-35.44-9.66-2.32,9.56-3.48,14.34-5.8,23.89,8.6,1.77,12.82,2.85,21.08,5.34,.99-2.79,1.48-4.18,2.47-6.96,2.11,.63,3.15,.95,5.24,1.62-2.55,7.05-3.82,10.57-6.36,17.62-1.93-.63-2.9-.93-4.86-1.51,.92-2.73,1.38-4.1,2.3-6.83-8.17-2.47-12.34-3.54-20.85-5.3-2.28,9.39-3.42,14.09-5.7,23.48,4.48,.92,6.7,1.44,11.09,2.58-.46,1.54-.69,2.32-1.15,3.86-10.3-2.69-15.6-3.74-26.43-5.15,.26-1.58,.39-2.36,.66-3.94,3.88,.5,5.8,.8,9.62,1.47,3.66-17.2,7.32-34.4,10.97-51.6-4.73-.8-7.11-1.15-11.92-1.75,.26-1.58,.4-2.36,.66-3.94,21.49,3.14,41.78,8.1,62.28,15.32-2.72,6.52-4.09,9.78-6.81,16.31-2.38-.9-3.58-1.34-6-2.18Z"/>
    <path class="cls-1" d="M482.18,156.81c.06-.31,.1-.5,.11-.57,0-.07,.06-.22,.16-.47,.1-.25,.27-.65,.51-1.19,.24-.54,.64-1.43,1.21-2.67,.57-1.23,1.3-2.89,2.17-4.98,.87-2.09,2.07-4.79,3.38-8.05,.64-1.58,1.04-3.11,1.24-4.48,.2-1.37,.1-2.68-.31-3.93-.41-1.24-1.18-2.48-2.32-3.68-1.14-1.21-2.74-2.45-4.82-3.69-5.21-3.12-7.87-4.61-13.3-7.41-4.76,8.66-7.14,12.99-11.9,21.65,3.28,1.7,4.9,2.59,8.09,4.42-.84,1.4-1.27,2.1-2.11,3.49-8.32-4.79-12.64-6.96-21.56-10.81,.68-1.47,1.02-2.21,1.71-3.68,3.42,1.47,5.11,2.25,8.45,3.86,8.18-15.88,16.36-31.76,24.53-47.65-4.15-1.98-6.25-2.92-10.5-4.73,.68-1.47,1.02-2.21,1.71-3.68,12.4,5.26,24.4,11.45,35.87,18.51,3.28,2.02,5.97,4.01,8.11,5.93,2.14,1.92,3.65,3.8,4.56,5.62,.91,1.82,1.22,3.66,.95,5.52-.27,1.86-1.18,3.77-2.71,5.75-.94,1.22-1.41,1.83-2.35,3.04-1.14,1.48-2.51,2.67-4.1,3.59-1.59,.92-3.32,1.56-5.17,1.91-1.85,.35-3.77,.37-5.75,.06-1.98-.31-3.96-1.01-5.97-2.11,1.49,1.18,2.61,2.39,3.36,3.6,.75,1.22,1.24,2.44,1.46,3.66,.22,1.22,.19,2.43-.06,3.64-.26,1.21-.64,2.39-1.14,3.54-2.72,6.3-4.14,9.43-7.06,15.62,2.27,1.71,3.38,2.58,5.59,4.36-1.05,1.26-1.58,1.9-2.63,3.16-3.68-2.97-5.56-4.41-9.41-7.18Zm26.74-41.02c1.09-1.5,1.72-2.93,1.88-4.27,.15-1.34-.16-2.69-.96-4.02-.79-1.34-2.02-2.7-3.67-4.08-1.66-1.37-3.71-2.81-6.16-4.29-6.2-3.73-9.37-5.5-15.85-8.82-4.79,8.72-7.19,13.08-11.98,21.81,6.06,3.12,9.02,4.78,14.81,8.3,2.1,1.27,4.1,2.16,6.04,2.66,1.94,.49,3.76,.64,5.48,.43,1.71-.21,3.3-.75,4.75-1.62,1.45-.87,2.7-2,3.72-3.41,.78-1.07,1.17-1.61,1.95-2.68Z"/>
    <path class="cls-1" d="M528.48,202.46c1.33-.99,2-1.48,3.33-2.46,2.21,2.97,3.28,4.48,5.36,7.55,4.54-6.39,6.73-9.66,10.93-16.36-5.76-8.02-12.28-15.86-19.11-22.99-7.42,2.79-11.07,4.29-18.24,7.46,2.63,2.62,3.92,3.95,6.43,6.68-1.22,1.11-1.83,1.67-3.05,2.78-5.84-6.34-8.93-9.37-15.41-15.1,1.1-1.22,1.66-1.83,2.76-3.05,1.91,1.69,2.85,2.54,4.7,4.28,19.78-8.71,39.69-15.69,60.56-21.34,2.79,3.21,4.16,4.84,6.82,8.16-9.66,19.22-20.45,37.23-32.91,54.78,1.38,2.17,2.06,3.27,3.38,5.49-1.42,.85-2.14,1.28-3.56,2.14-4.43-7.45-6.83-11.06-11.99-18.01Zm38.63-46.15c-11.48,2.87-22.82,6.3-33.97,10.29,7.4,7.93,10.88,12.11,17.33,20.82,6.07-10.08,11.62-20.47,16.64-31.11Z"/>
    <path class="cls-1" d="M622.07,266.88c-19.1,4.79-38.21,9.58-57.31,14.37-.7-3.06-1.07-4.58-1.88-7.61,16.21-17.1,29.28-36.11,40.97-56.5-16.23,7.52-32.45,15.04-48.68,22.57,1.53,3.39,2.26,5.11,3.65,8.57-1.54,.64-2.31,.96-3.85,1.6-3.52-8.79-5.52-13.08-9.98-21.39,1.46-.8,2.19-1.19,3.65-1.99,1.72,3.2,2.55,4.82,4.13,8.09,16.37-8.09,32.74-16.18,49.11-24.27-1.99-4.05-3.02-6.05-5.17-10.01,1.46-.8,2.19-1.19,3.65-1.99,4.3,7.9,6.29,11.94,9.93,20.2-3.04,5.26-6.12,10.33-9.25,15.21-3.13,4.88-6.33,9.63-9.61,14.24-3.28,4.61-6.72,9.09-10.33,13.41-3.6,4.32-7.41,8.56-11.42,12.67,16.89-4.69,33.79-9.38,50.68-14.08-1.17-4.47-1.8-6.69-3.16-11.09,1.59-.51,2.38-.77,3.97-1.28,2.93,9.28,5.35,18.95,7.14,28.52-1.63,.35-2.45,.52-4.08,.87-.78-4.07-1.21-6.09-2.15-10.11Z"/>
    <path class="cls-1" d="M569.87,333.62c1.67-.01,2.5-.02,4.17-.04-.08,3.02-.15,4.53-.35,7.56,8.91-8.25,17.17-17.2,24.72-26.71,1.35-2.02,2.01-3.05,3.31-5.12-9.38,.97-18.77,1.94-28.15,2.92,.27,3.75,.36,5.64,.47,9.42-1.66,.1-2.5,.15-4.16,.26-.27-9.82-.69-14.69-2.07-24.25,1.64-.28,2.47-.43,4.11-.71,.53,3.69,.76,5.54,1.14,9.26,18.15-2.37,36.31-4.74,54.46-7.11-.49-4.62-.79-6.93-1.47-11.5,1.64-.28,2.47-.43,4.11-.71,1.6,10.21,2.57,20.79,2.85,31.12-1.66,.1-2.5,.15-4.16,.26-.16-4.7-.29-7.04-.65-11.7-10.31,1.07-15.46,1.6-25.77,2.67,.63,.57,2.13,2.08,4.43,4.66,2.3,2.58,5.41,6.21,9.17,11.16,3.76,4.94,6.59,9.06,8.64,12.11,2.04,3.05,3.3,4.99,3.85,5.72,.26-4.35,.34-6.52,.42-10.84,1.67-.02,2.5-.03,4.17-.05-.2,10.91-.57,16.42-1.9,27.5-1.66-.14-2.49-.21-4.15-.35,.35-2.89,.5-4.33,.77-7.21-1.89-2.61-4.01-5.73-6.4-9.29-2.39-3.56-5.12-7.6-8.25-12.01-3.83-5.39-5.82-7.98-9.92-12.92-9.49,11.38-19.35,21.77-30.27,31.79-.24,2.36-.38,3.54-.68,5.91-1.66-.15-2.49-.22-4.15-.36,1.12-8.62,1.46-12.91,1.7-21.41Z"/>
  </g>
  <g>
    <path class="cls-1" d="M260.84,619c-5.69,.76-12.17-.21-19.17-3.07-4.2-1.72-7.71-3.9-10.48-6.47-2.77-2.57-4.76-5.4-5.96-8.43-1.2-3.03-1.58-6.2-1.18-9.48,.4-3.28,1.6-6.59,3.51-9.93,2.22-3.86,3.33-5.79,5.54-9.66,1.92-3.34,4.15-6.07,6.63-8.24,2.48-2.17,5.16-3.75,8.01-4.78,2.85-1.03,5.8-1.46,8.88-1.33,3.08,.13,6.26,.87,9.61,2.2,4.37,1.74,7.85,3.72,10.49,6.11,2.64,2.39,4.39,4.89,5.21,7.59,.87-2.68,1.31-4.02,2.18-6.7,1.16,.35,1.75,.52,2.92,.85-2.28,7.38-3.42,11.06-5.7,18.44-1.9-.55-2.84-.83-4.73-1.41,.35-1.05,.53-1.58,.88-2.63,.15-2.24-.07-4.29-.64-6.18-.57-1.88-1.42-3.59-2.55-5.12-1.13-1.53-2.5-2.87-4.11-4.03-1.62-1.16-3.41-2.12-5.39-2.9-5.35-2.12-10.15-2.26-14.68-.32-4.53,1.94-8.44,5.69-11.53,11.44-2.05,3.8-3.07,5.71-5.12,9.51-3.09,5.75-3.92,11.1-2.21,16.05,1.71,4.95,5.94,8.97,12.55,11.66,5.17,2.1,9.94,2.79,14.15,2.16,4.21-.63,7.66-2.78,10.34-6.33,.35-1.05,.53-1.57,.88-2.62,2.43,.77,3.65,1.14,6.09,1.84-.48,1.57-.72,2.36-1.21,3.93-3.12,4.39-7.52,7.08-13.2,7.84Z"/>
    <path class="cls-1" d="M330.43,635.71c.1-1.58,.15-2.38,.26-3.96,4.02,.27,6.03,.37,10.06,.49-2.79-7.12-4.09-10.7-6.48-17.87-9.3-.46-18.77-1.49-27.94-3.05-3.97,6.44-6.06,9.63-10.42,15.91,3.97,.77,5.96,1.12,9.95,1.75-.25,1.56-.38,2.34-.63,3.91-9.6-1.51-14.38-2.48-23.85-4.81,.39-1.53,.59-2.29,.99-3.82,2.7,.66,4.05,.98,6.76,1.58,11.95-16.37,22.89-33.21,32.01-51.35,2.87,.34,4.31,.49,7.19,.73,4.68,19.65,11.56,38.55,19.33,57.16,2.8,.02,4.2,0,7.01-.04,.04,1.59,.07,2.39,.11,3.98-9.74,.18-14.61,.06-24.33-.59Zm-6.22-57.16c-4.97,9.95-10.13,19.5-15.73,29.12,9.75,1.53,14.66,2.07,24.49,2.66-3.27-10.58-6.15-21.02-8.76-31.78Z"/>
    <path class="cls-1" d="M414.69,628.8c-.22-.24-.35-.39-.4-.43-.05-.05-.15-.19-.28-.42-.14-.23-.35-.61-.63-1.13-.29-.52-.74-1.38-1.34-2.59-.61-1.21-1.44-2.8-2.49-4.79-1.05-1.99-2.34-4.62-3.9-7.72-.76-1.51-1.61-2.81-2.46-3.89-.84-1.07-1.82-1.9-2.91-2.49-1.1-.59-2.39-.94-3.88-1.06-1.49-.12-3.28,0-5.37,.36-5.27,.9-7.91,1.27-13.21,1.89,1.23,9.62,1.85,14.43,3.09,24.05,3.92-.44,5.88-.7,9.79-1.28,.26,1.58,.4,2.37,.66,3.95-10.54,1.57-15.85,2.1-26.46,2.67-.1-1.59-.16-2.39-.26-3.98,3.94-.21,5.91-.36,9.84-.71-1.8-17.44-3.6-34.89-5.41-52.33-3.14,.31-4.71,.43-7.86,.63-.1-1.59-.16-2.39-.26-3.98,10.73-.68,16.09-1.35,26.7-3.34,2.54-.48,4.79-.74,6.77-.77,1.98-.03,3.69,.26,5.14,.88,1.45,.62,2.71,1.62,3.77,3.03,1.06,1.41,1.93,3.29,2.58,5.66,.4,1.45,.6,2.18,1.01,3.64,.49,1.76,.68,3.51,.56,5.25-.12,1.74-.52,3.39-1.23,4.94-.7,1.55-1.71,2.92-3.01,4.08-1.31,1.17-2.92,2.04-4.83,2.6,1.65-.16,3.11-.09,4.38,.21,1.27,.3,2.4,.78,3.39,1.43,.99,.65,1.86,1.45,2.61,2.42,.74,.97,1.4,2,1.98,3.09,3.17,6,4.81,8.98,8.18,14.91,2.99-.77,4.49-1.17,7.46-2.02,.48,1.54,.72,2.31,1.21,3.85-5.14,1.47-7.72,2.14-12.91,3.36Zm-14.31-45.97c-.44-1.77-1.04-3.17-1.79-4.2-.74-1.03-1.69-1.75-2.82-2.17-1.13-.42-2.45-.6-3.98-.56-1.52,.05-3.26,.25-5.22,.6-4.95,.88-7.43,1.25-12.41,1.86,1.24,9.69,1.86,14.53,3.11,24.22,5.72-.67,8.57-1.09,14.25-2.08,2.06-.36,3.82-1.01,5.25-1.94,1.43-.92,2.55-2.05,3.33-3.35,.79-1.31,1.26-2.76,1.43-4.35,.17-1.59,.04-3.21-.38-4.87-.31-1.26-.47-1.89-.78-3.16Z"/>
    <path class="cls-1" d="M475.38,603.52c-1.92,3.88-5.77,7.19-11.47,9.69-5.22,2.28-9.94,3.56-14.04,3.95-4.11,.39-7.76-.31-10.9-2.03,.92,2.45,1.37,3.68,2.29,6.14-1.49,.51-2.24,.76-3.74,1.24-2.62-7.36-3.93-11.04-6.56-18.41,2.15-.67,3.23-1.02,5.37-1.73,.39,1.03,.59,1.55,.98,2.58,1.5,3.92,4.33,6.41,8.63,7.33,4.29,.92,9.35,.23,14.98-2.2,4.12-1.78,6.86-4.13,8.17-6.9,1.32-2.78,1.09-5.73-.58-8.84-.69-1.29-1.04-1.93-1.73-3.21-1.43-2.65-3.33-4.21-5.66-4.72-2.33-.51-4.89-.52-7.68-.05-2.79,.47-5.7,1.12-8.72,1.92-3.02,.81-5.96,1.26-8.79,1.36-2.82,.1-5.38-.43-7.64-1.57-2.26-1.14-3.97-3.4-5.16-6.75-.6-1.69-.9-2.53-1.51-4.21-1.47-4.11-1.28-7.79,.4-11.07,1.68-3.28,4.64-5.73,8.98-7.54,3.38-1.4,6.65-2.29,9.89-2.63,3.24-.34,6.28,0,9.14,1.08-1.12-2.04-1.68-3.07-2.79-5.11,1.1-.56,1.65-.85,2.74-1.43,3.84,6.79,5.76,10.18,9.6,16.97-1.83,.92-2.75,1.37-4.59,2.25-.54-1.01-.81-1.52-1.36-2.53-2-3.73-4.85-5.93-8.46-6.73-3.61-.81-7.45-.28-11.71,1.51-3.11,1.31-5.2,3.12-6.32,5.54-1.12,2.42-1.15,5.1,0,8.05,.55,1.41,.82,2.12,1.37,3.54,.75,1.93,1.81,3.31,3.2,4.11,1.39,.81,2.99,1.26,4.78,1.34,1.8,.08,3.75-.1,5.85-.56,2.1-.46,4.26-.97,6.49-1.54,2.22-.57,4.43-1.07,6.61-1.5,2.18-.43,4.28-.56,6.29-.41,2.01,.16,3.91,.74,5.72,1.76,1.8,1.02,3.41,2.73,4.8,5.15,.97,1.69,1.45,2.54,2.42,4.23,2.33,4.08,2.63,8.07,.72,11.95Z"/>
  </g>
</svg>